<?xml version="1.0" standalone="no"?>
<!DOCTYPE svg PUBLIC "-//W3C//DTD SVG 20010904//EN"
 "http://www.w3.org/TR/2001/REC-SVG-20010904/DTD/svg10.dtd">
<svg version="1.0" xmlns="http://www.w3.org/2000/svg"
 width="741.000000pt" height="762.000000pt" viewBox="0 0 741.000000 762.000000"
 preserveAspectRatio="xMidYMid meet">
<metadata>
Created by potrace 1.16, written by Peter Selinger 2001-2019
</metadata>
<g transform="translate(0.000000,762.000000) scale(0.100000,-0.100000)"
fill="#000000" stroke="none">
<path d="M960 6735 l0 -215 118 0 c161 1 215 26 248 117 16 46 18 134 4 185
-14 48 -55 97 -97 114 -21 9 -74 14 -153 14 l-120 0 0 -215z m194 162 c23 -16
36 -75 36 -162 0 -121 -23 -175 -72 -175 -17 0 -18 13 -18 175 0 162 1 175 18
175 10 0 26 -6 36 -13z"/>
<path d="M1380 6735 l0 -215 70 0 70 0 0 215 0 215 -70 0 -70 0 0 -215z"/>
<path d="M1665 6936 c-66 -29 -105 -101 -105 -193 0 -75 14 -125 47 -164 35
-41 79 -59 148 -59 127 0 195 75 195 215 0 99 -39 173 -107 201 -41 18 -139
17 -178 0z m117 -48 c9 -16 13 -65 13 -153 0 -133 -10 -175 -40 -175 -30 0
-40 42 -40 175 0 133 10 175 40 175 8 0 20 -10 27 -22z"/>
<path d="M2100 6934 c-49 -21 -70 -42 -96 -99 -52 -109 -18 -252 70 -294 50
-25 140 -28 189 -7 78 32 118 135 61 156 -39 15 -44 13 -44 -25 0 -97 -90
-141 -131 -64 -32 60 -18 259 21 294 40 36 90 -3 90 -71 0 -26 18 -31 51 -14
39 22 10 102 -46 126 -44 18 -120 17 -165 -2z"/>
<path d="M2380 6735 l0 -215 155 0 155 0 0 25 c0 25 -1 25 -85 25 l-85 0 0 80
0 80 60 0 c57 0 60 1 60 25 0 24 -3 25 -60 25 l-60 0 0 60 0 60 75 0 c73 0 75
1 75 25 l0 25 -145 0 -145 0 0 -215z"/>
<path d="M2768 6929 c-83 -43 -91 -147 -16 -216 12 -12 48 -32 78 -46 66 -29
84 -48 76 -81 -5 -19 -15 -27 -41 -32 -60 -11 -107 38 -92 96 7 26 -6 33 -43
25 -27 -6 -30 -11 -30 -44 0 -73 64 -121 160 -121 61 0 106 18 140 55 20 21
25 37 25 78 0 73 -22 100 -121 148 -92 45 -108 59 -99 88 8 25 37 35 81 27 37
-7 54 -30 54 -72 0 -22 3 -25 23 -20 12 3 28 6 35 6 6 0 12 9 12 20 0 37 -30
81 -65 96 -49 20 -132 17 -177 -7z"/>
<path d="M3070 6735 l0 -215 155 0 155 0 0 25 c0 25 -1 25 -85 25 l-85 0 0 80
0 80 60 0 c57 0 60 1 60 25 0 24 -3 25 -60 25 l-60 0 0 60 0 60 75 0 c73 0 75
1 75 25 l0 25 -145 0 -145 0 0 -215z"/>
<path d="M3695 6936 c-66 -29 -105 -101 -105 -193 0 -75 14 -125 47 -164 35
-41 79 -59 148 -59 127 0 195 75 195 215 0 99 -39 173 -107 201 -41 18 -139
17 -178 0z m117 -48 c9 -16 13 -65 13 -153 0 -133 -10 -175 -40 -175 -30 0
-40 42 -40 175 0 133 10 175 40 175 8 0 20 -10 27 -22z"/>
<path d="M4030 6735 l0 -215 70 0 70 0 0 100 0 100 65 0 c63 0 65 1 65 25 0
24 -2 25 -65 25 l-65 0 0 65 0 65 75 0 c73 0 75 1 75 25 l0 25 -145 0 -145 0
0 -215z"/>
<path d="M4540 6735 l0 -215 155 0 155 0 0 25 c0 25 -1 25 -85 25 l-85 0 0 80
0 80 60 0 c57 0 60 1 60 25 0 24 -3 25 -60 25 l-60 0 0 60 0 60 75 0 c73 0 75
1 75 25 l0 25 -145 0 -145 0 0 -215z"/>
<path d="M4870 6735 l0 -215 30 0 30 0 1 108 0 107 32 -105 32 -105 39 -3 c21
-2 43 1 48 6 5 5 22 53 38 108 l29 99 0 -107 1 -108 70 0 70 0 0 215 0 215
-73 0 -74 0 -28 -97 c-16 -54 -30 -102 -33 -107 -3 -5 -19 38 -36 95 l-31 104
-73 3 -72 3 0 -216z"/>
<path d="M5350 6735 l0 -215 135 0 c154 0 195 11 219 59 9 16 16 47 16 67 0
30 -7 44 -38 73 l-39 37 29 26 c33 30 38 80 12 117 -29 40 -73 51 -209 51
l-125 0 0 -215z"/>
<path d="M5740 6790 c0 -177 8 -213 56 -244 44 -30 149 -33 208 -8 68 31 76
56 76 252 l0 160 -30 0 -30 0 0 -160 c0 -157 -1 -161 -25 -185 -29 -30 -68
-32 -95 -5 -18 18 -20 33 -20 185 l0 165 -70 0 -70 0 0 -160z"/>
<path d="M3741 6328 c-4 -13 -28 -84 -52 -158 -24 -74 -50 -139 -56 -143 -27
-17 -11 -27 42 -27 42 0 55 3 55 15 0 8 -9 15 -20 15 -14 0 -20 7 -20 23 0 36
12 44 77 50 l61 7 11 -32 c15 -43 14 -48 -10 -48 -12 0 -19 -5 -17 -12 6 -18
148 -24 148 -7 0 6 -6 17 -14 23 -8 6 -39 79 -69 161 l-54 150 -36 3 c-31 3
-38 -1 -46 -20z"/>
<path d="M3340 6323 c-44 -5 -63 -22 -33 -29 25 -7 31 -29 39 -175 6 -99 5
-111 -11 -123 -37 -27 -7 -32 92 -19 182 26 163 18 163 67 0 28 -5 46 -14 49
-18 7 -26 -1 -26 -28 0 -32 -19 -45 -67 -45 -49 0 -46 -8 -60 172 -7 97 -6
107 10 112 9 2 17 9 17 15 0 11 -39 12 -110 4z"/>
<path d="M4220 6306 c0 -8 5 -18 10 -21 16 -10 12 -41 -21 -167 -27 -100 -35
-118 -51 -118 -39 0 -11 -25 40 -36 53 -12 69 -3 37 20 -14 10 -13 23 11 121
14 61 29 113 33 117 3 4 29 -61 57 -145 46 -137 54 -152 76 -155 21 -3 25 3
37 50 7 29 24 94 38 145 23 84 28 92 52 95 42 5 27 22 -34 37 -62 15 -76 10
-52 -17 15 -16 15 -23 -1 -91 -9 -41 -21 -74 -27 -75 -5 -1 -28 49 -51 109
-41 108 -43 110 -85 127 -55 21 -69 22 -69 4z"/>
<path d="M3080 6273 c-113 -24 -141 -34 -137 -46 2 -7 11 -11 20 -9 19 3 30
-29 56 -172 19 -103 20 -110 3 -122 -9 -7 -14 -15 -10 -19 5 -5 56 3 236 41
19 4 22 11 22 50 0 37 -3 45 -17 42 -9 -2 -20 -17 -25 -35 -10 -38 -11 -39
-64 -48 -47 -7 -47 -7 -60 91 l-6 51 48 9 c72 14 71 36 -2 32 l-58 -3 -8 50
c-4 27 -6 51 -4 53 2 1 21 6 41 9 30 5 41 2 51 -12 7 -10 20 -15 28 -12 12 5
13 12 5 37 -12 34 -19 35 -119 13z"/>
<path d="M2719 6152 c-97 -50 -120 -133 -67 -240 45 -90 126 -115 223 -67 87
42 87 41 63 116 -12 35 -22 65 -23 66 -1 2 -26 -5 -56 -15 -55 -19 -72 -44
-33 -50 14 -2 25 -15 32 -40 10 -32 9 -39 -5 -49 -9 -7 -26 -13 -38 -13 -66 0
-142 172 -105 240 5 10 24 23 42 29 27 10 34 8 53 -9 21 -20 55 -27 55 -11 0
4 -5 22 -11 40 -9 26 -16 31 -44 31 -18 0 -57 -12 -86 -28z"/>
<path d="M4678 6151 c-114 -37 -168 -202 -92 -282 36 -38 65 -53 135 -72 l56
-14 34 68 c18 38 31 70 28 72 -6 6 -101 37 -111 37 -4 0 -8 -7 -8 -15 0 -8 5
-15 10 -15 15 0 12 -27 -5 -60 -9 -17 -23 -30 -32 -30 -28 0 -73 51 -73 81 0
44 71 172 103 187 51 25 111 -8 105 -57 -2 -18 2 -27 15 -29 24 -5 55 66 35
80 -61 40 -83 49 -125 53 -26 2 -60 0 -75 -4z"/>
<path d="M5005 6040 c-4 -6 -2 -16 3 -23 7 -8 -1 -31 -29 -77 -66 -107 -90
-159 -91 -197 -1 -31 5 -42 37 -70 64 -55 150 -69 189 -30 12 12 46 62 76 109
49 81 54 87 80 81 27 -5 56 17 32 25 -6 2 -30 16 -54 32 -24 17 -46 30 -49 30
-3 0 -6 -19 -6 -42 1 -33 -9 -60 -42 -116 -47 -79 -72 -102 -112 -102 -38 0
-79 36 -79 68 0 16 27 69 63 127 57 90 65 100 90 97 40 -4 33 11 -25 50 -72
48 -76 50 -83 38z"/>
<path d="M2448 6019 c-43 -22 -51 -49 -14 -49 19 0 32 -15 65 -72 40 -68 46
-92 19 -71 -16 13 -197 93 -209 93 -5 0 -27 -12 -50 -27 -40 -27 -47 -50 -13
-45 15 2 33 -23 82 -112 51 -94 61 -119 56 -145 -4 -17 -3 -31 0 -31 4 0 28
14 52 31 46 31 54 56 17 51 -17 -2 -32 17 -81 103 -34 58 -59 105 -57 105 2 0
25 -11 52 -24 218 -111 230 -115 248 -102 19 14 25 2 -102 230 -20 35 -21 42
-8 56 32 36 2 40 -57 9z"/>
<path d="M5334 5778 c0 -27 -21 -99 -53 -188 -54 -146 -56 -171 -19 -178 8 -2
73 36 145 83 108 71 135 85 157 79 19 -4 26 -2 26 8 0 16 -79 97 -81 83 -1 -6
-2 -22 -3 -37 -1 -21 -18 -39 -91 -91 -49 -36 -91 -62 -92 -58 -2 3 16 56 40
116 41 103 45 110 69 107 15 -1 29 2 32 6 6 10 -105 112 -121 112 -5 0 -9 -19
-9 -42z"/>
<path d="M3330 5580 c-478 -222 -454 -210 -458 -241 -3 -24 9 -32 185 -124
103 -54 267 -141 363 -195 265 -147 277 -153 324 -147 28 3 135 55 324 157
250 135 282 155 282 177 0 34 -16 60 -48 77 -22 12 -24 16 -10 21 20 8 74 -19
88 -44 6 -12 10 -100 10 -213 0 -205 5 -227 42 -207 19 10 20 21 17 201 l-4
191 83 39 c74 35 83 42 80 64 -3 21 -27 36 -173 105 -93 44 -278 132 -410 195
-198 94 -249 114 -285 114 -37 -1 -112 -32 -410 -170z"/>
<path d="M2007 5685 c-15 -14 -14 -22 10 -83 70 -185 93 -256 88 -272 -11 -34
13 -30 44 7 35 43 39 56 14 51 -24 -3 -43 9 -43 28 0 9 21 35 48 59 38 35 51
41 65 33 13 -7 17 -17 13 -32 -10 -39 5 -37 60 11 42 36 51 49 42 60 -6 8 -15
10 -22 4 -7 -5 -41 8 -93 38 -222 126 -204 118 -226 96z"/>
<path d="M5635 5503 c6 -24 1 -33 -34 -63 -22 -19 -69 -62 -106 -94 -50 -45
-69 -56 -77 -48 -14 14 -38 16 -38 3 0 -11 121 -131 132 -131 13 0 9 22 -7 40
-14 16 -9 23 57 81 127 112 139 121 153 109 21 -18 29 7 11 35 -26 40 -77 95
-88 95 -6 0 -7 -11 -3 -27z"/>
<path d="M1661 5255 c-77 -132 -80 -149 -29 -176 29 -15 41 7 21 38 -13 19
-14 29 -5 48 7 14 17 25 23 25 12 0 159 -100 196 -133 20 -18 21 -21 7 -42
-11 -17 -12 -25 -4 -30 16 -10 25 1 76 87 29 49 40 76 33 83 -7 7 -16 2 -28
-14 l-18 -24 -84 60 c-46 33 -94 66 -106 72 -27 14 -29 28 -7 52 13 14 21 16
36 8 14 -8 23 -8 31 0 13 13 0 29 -40 53 l-29 17 -73 -124z"/>
<path d="M2590 5364 c-46 -31 -112 -99 -152 -157 -39 -57 -105 -227 -88 -227
15 0 104 75 153 129 55 62 104 160 113 225 4 25 5 46 3 46 -3 0 -16 -7 -29
-16z"/>
<path d="M4835 5338 c18 -109 89 -230 176 -300 53 -42 89 -62 89 -49 0 33 -63
178 -105 240 -45 68 -132 151 -157 151 -6 0 -7 -16 -3 -42z"/>
<path d="M5780 5328 c0 -17 -25 -43 -91 -98 -91 -75 -109 -99 -109 -146 0 -40
37 -100 76 -124 56 -35 87 -29 186 40 70 48 93 59 113 54 34 -8 32 7 -6 62
-31 45 -54 51 -43 10 4 -19 -6 -31 -68 -78 -119 -89 -137 -93 -178 -41 -28 36
-25 70 8 98 155 131 163 137 178 124 9 -8 18 -9 25 -2 6 6 -5 29 -31 64 -47
62 -60 70 -60 37z"/>
<path d="M2287 5216 c-27 -40 -57 -143 -57 -193 0 -42 29 -262 36 -271 6 -8
123 61 167 99 39 34 97 120 97 144 0 12 -65 -7 -105 -30 -22 -13 -50 -37 -63
-54 -12 -17 -27 -31 -31 -31 -10 0 -8 53 4 162 8 66 -8 182 -25 193 -4 3 -15
-6 -23 -19z"/>
<path d="M5120 5188 c-7 -35 -9 -99 -4 -188 l6 -135 -36 42 c-44 51 -89 79
-139 88 l-39 8 22 -44 c30 -58 113 -137 187 -176 l60 -33 17 78 c30 139 21
274 -25 364 -28 54 -36 54 -49 -4z"/>
<path d="M3218 4938 c3 -163 16 -212 65 -254 156 -132 580 -161 811 -55 128
59 148 96 154 294 3 81 2 147 -1 147 -3 0 -77 -39 -164 -88 -231 -128 -287
-154 -341 -160 -43 -4 -58 2 -162 56 -63 33 -171 92 -238 131 -68 39 -125 71
-125 71 -1 0 -1 -64 1 -142z"/>
<path d="M1506 4988 c-62 -72 -56 -140 17 -176 34 -17 65 -8 138 39 49 32 64
37 79 29 46 -25 6 -119 -45 -106 -14 4 -28 0 -36 -10 -11 -14 -10 -19 10 -35
32 -26 42 -24 78 14 51 54 63 79 63 128 0 37 -5 52 -26 73 -44 43 -89 35 -172
-31 -45 -36 -77 -40 -95 -12 -17 27 16 69 53 69 39 0 48 19 20 42 -32 26 -44
23 -84 -24z"/>
<path d="M2166 4918 c-45 -104 -49 -231 -11 -387 15 -61 30 -111 34 -110 3 0
41 40 85 87 73 81 114 151 141 240 6 22 5 23 -17 17 -39 -11 -71 -39 -123
-108 l-50 -66 -7 132 c-4 73 -14 155 -21 182 l-15 50 -16 -37z"/>
<path d="M5242 4867 c-7 -46 -12 -130 -12 -188 -1 -100 -1 -103 -18 -81 -9 12
-37 49 -62 82 -40 53 -103 100 -117 87 -11 -12 30 -108 76 -178 27 -41 72 -96
99 -123 l50 -49 11 39 c6 22 20 71 31 110 24 84 27 217 6 284 -17 56 -37 100
-46 100 -3 0 -11 -37 -18 -83z"/>
<path d="M5381 4575 c-33 -49 -68 -141 -80 -210 -5 -33 -15 -73 -21 -90 l-11
-30 -20 55 c-18 53 -97 177 -127 203 -13 10 -14 1 -10 -73 7 -107 48 -208 147
-360 14 -22 38 11 108 148 l58 113 -1 117 c0 64 -4 127 -10 139 -9 22 -10 21
-33 -12z"/>
<path d="M2024 4565 c-3 -19 -5 -83 -2 -142 3 -101 6 -113 41 -183 57 -115
101 -191 110 -191 9 0 58 86 118 208 36 71 42 94 46 168 3 47 2 85 -3 85 -10
0 -83 -106 -108 -156 -8 -17 -20 -52 -27 -77 -6 -26 -15 -47 -20 -47 -5 0 -9
3 -9 8 0 19 -40 201 -50 227 -15 40 -72 135 -82 135 -4 0 -10 -16 -14 -35z"/>
<path d="M5400 4128 c-36 -37 -67 -84 -103 -157 l-51 -105 -22 86 c-21 84 -49
143 -79 168 -24 20 -28 7 -27 -82 0 -61 6 -103 25 -158 14 -42 33 -104 42
-138 10 -34 22 -62 26 -62 5 0 9 4 9 10 0 5 35 49 79 97 81 91 120 155 141
233 17 60 28 160 19 160 -4 0 -31 -24 -59 -52z"/>
<path d="M1980 4149 c0 -12 9 -61 20 -109 25 -102 59 -158 171 -280 l77 -83
21 90 c11 50 27 108 35 129 7 22 17 63 21 92 7 54 -2 152 -14 152 -18 0 -80
-126 -91 -186 -7 -35 -16 -66 -20 -69 -4 -3 -28 37 -53 88 -44 90 -128 197
-155 197 -7 0 -12 -10 -12 -21z"/>
<path d="M2346 3825 c-19 -50 -36 -157 -36 -228 -1 -75 -2 -80 -16 -62 -87
118 -221 245 -256 245 -17 0 0 -75 32 -147 22 -47 49 -84 97 -131 73 -71 175
-142 204 -142 20 0 25 31 35 207 6 97 4 120 -15 180 -26 84 -36 101 -45 78z"/>
<path d="M3640 3831 c-115 -35 -225 -127 -279 -231 l-30 -61 27 -10 c95 -36
219 -97 291 -143 l84 -53 81 54 c95 64 170 103 244 127 33 11 52 23 52 33 0
46 -92 166 -173 224 -75 54 -219 83 -297 60z"/>
<path d="M5066 3794 c-10 -27 -20 -81 -23 -121 -6 -72 13 -280 27 -303 23 -37
231 133 299 244 21 34 63 157 57 164 -19 19 -218 -155 -264 -230 -18 -31 -39
-39 -23 -10 13 25 4 136 -19 212 -29 96 -35 100 -54 44z"/>
<path d="M5922 3578 c-10 -10 -6 -18 19 -39 28 -22 31 -29 24 -58 -4 -18 -13
-35 -21 -38 -14 -5 -188 40 -226 59 -10 5 -18 18 -18 28 0 11 -6 20 -13 20
-19 0 -60 -141 -46 -155 7 -7 15 -4 23 7 14 19 37 15 186 -29 63 -19 75 -27
75 -51 0 -9 7 -17 15 -17 15 0 68 174 69 232 1 32 0 32 -59 49 -9 2 -22 -2
-28 -8z"/>
<path d="M2466 3512 c-13 -82 -4 -227 20 -311 6 -19 -6 -13 -63 36 -82 68
-158 109 -225 122 -27 4 -48 7 -48 4 0 -16 77 -117 122 -159 59 -56 93 -76
172 -104 28 -9 77 -29 109 -43 l57 -27 0 58 c0 146 -39 312 -95 408 -34 58
-41 60 -49 16z"/>
<path d="M2905 3521 l-90 -18 234 -117 c330 -165 419 -225 584 -392 l96 -98
69 70 c143 145 293 250 533 370 156 78 282 149 298 168 9 11 -3 16 -64 25
-137 20 -230 12 -392 -35 -105 -30 -282 -113 -376 -177 l-68 -46 -107 73
c-242 163 -485 223 -717 177z"/>
<path d="M4943 3507 c-35 -53 -62 -112 -74 -164 -10 -45 -38 -313 -32 -313 1
0 28 12 60 26 32 14 82 35 112 45 111 39 199 110 260 209 l31 50 -25 0 c-62 0
-193 -71 -284 -155 -30 -27 -42 -34 -37 -20 22 57 37 168 34 247 -4 103 -14
121 -45 75z"/>
<path d="M1589 3440 c-20 -11 -48 -33 -63 -50 -22 -26 -26 -42 -26 -90 0 -36
8 -76 20 -105 l20 -47 43 6 c23 4 58 11 78 17 l37 9 -14 47 c-19 62 -31 73
-43 40 -16 -41 -82 -50 -105 -14 -29 46 62 115 165 124 47 5 63 2 78 -11 29
-26 31 -53 9 -82 -28 -35 -11 -51 32 -29 30 15 31 19 25 53 -10 58 -37 105
-74 129 -44 30 -130 31 -182 3z"/>
<path d="M2801 3282 c12 -74 16 -79 102 -113 240 -95 442 -210 597 -338 161
-133 188 -151 229 -151 42 0 57 9 166 101 135 113 270 197 502 310 147 72 228
118 239 134 9 13 18 43 21 65 6 40 6 40 -21 30 -14 -5 -80 -23 -147 -40 -230
-57 -409 -149 -627 -320 -142 -113 -125 -110 -222 -32 -278 225 -438 307 -702
361 -51 11 -105 24 -119 29 l-26 10 8 -46z"/>
<path d="M5633 3299 c-66 -42 -96 -128 -68 -195 31 -76 85 -114 160 -114 97 0
165 64 173 163 5 63 -22 109 -83 144 -53 30 -137 31 -182 2z m137 -76 c51 -21
90 -62 90 -94 0 -43 -44 -72 -98 -65 -91 12 -166 71 -160 127 5 59 72 72 168
32z"/>
<path d="M2688 3232 c-9 -34 0 -123 17 -171 8 -24 31 -66 51 -93 19 -28 33
-52 31 -54 -3 -3 -50 14 -106 36 -113 46 -205 65 -264 55 l-39 -7 29 -30 c67
-72 208 -138 295 -138 24 0 81 -7 128 -15 46 -8 87 -11 91 -7 24 25 -107 311
-179 392 -45 49 -49 52 -54 32z"/>
<path d="M4709 3190 c-25 -27 -65 -86 -88 -132 -49 -98 -102 -246 -91 -253 4
-3 41 0 81 6 41 5 108 14 149 19 41 5 94 15 117 24 54 19 140 75 177 115 l30
31 -45 1 c-24 1 -62 1 -84 -1 -39 -2 -214 -59 -267 -86 -36 -18 -35 -12 2 34
48 61 73 129 78 215 3 42 1 77 -4 77 -4 0 -29 -22 -55 -50z"/>
<path d="M1864 3176 c-3 -7 -4 -19 -2 -26 3 -13 -95 -79 -181 -122 -31 -15
-46 -18 -49 -10 -5 16 -32 15 -32 0 0 -7 14 -41 32 -76 32 -63 52 -75 53 -32
0 33 197 152 238 144 15 -3 27 -2 27 2 0 10 -70 134 -76 134 -2 0 -7 -6 -10
-14z"/>
<path d="M2951 2994 c18 -95 69 -163 157 -208 26 -14 56 -31 67 -40 19 -15 18
-15 -25 -15 -25 0 -99 4 -165 9 -74 6 -147 5 -194 -1 -132 -16 -138 -25 -50
-71 152 -79 285 -88 418 -29 l75 33 128 -31 c168 -40 268 -71 268 -82 0 -5 -5
-9 -11 -9 -17 0 -180 -64 -297 -118 -107 -48 -133 -71 -108 -92 12 -9 36 -1
118 38 178 86 348 152 390 152 42 0 222 -67 367 -136 74 -35 135 -64 137 -64
2 0 8 9 14 19 9 17 2 24 -63 59 -85 47 -268 126 -314 136 -18 4 -33 11 -33 15
0 8 152 55 302 93 l87 22 72 -34 c90 -41 181 -50 283 -26 67 16 206 81 206 96
0 15 -131 40 -212 40 -46 0 -121 -7 -168 -15 -51 -9 -97 -12 -114 -7 -29 8
-29 8 28 37 80 41 135 91 162 149 22 47 32 116 18 116 -3 0 -47 -31 -97 -69
-113 -85 -205 -180 -213 -219 -6 -29 -10 -31 -133 -62 -69 -18 -171 -44 -226
-60 -93 -25 -103 -26 -145 -13 -25 7 -117 31 -205 53 -200 51 -201 51 -208 90
-4 18 -29 54 -59 87 -51 53 -240 203 -257 203 -5 0 -5 -21 0 -46z"/>
<path d="M1960 2978 c-1 -17 -26 -42 -101 -97 -88 -65 -103 -73 -120 -63 -34
22 -33 -10 3 -71 35 -60 58 -73 58 -33 0 16 12 32 39 51 58 40 86 12 36 -35
-14 -13 -31 -41 -37 -62 -10 -34 -9 -42 8 -65 26 -34 44 -40 44 -15 0 12 16
48 36 81 33 55 38 60 64 55 32 -7 85 17 100 45 20 38 10 69 -47 150 -59 82
-83 99 -83 59z"/>
<path d="M5478 2980 c-150 -80 -92 -301 84 -318 62 -6 102 13 138 65 21 30 25
48 25 104 0 61 -3 71 -30 100 -62 65 -148 85 -217 49z m118 -80 c63 -35 94
-73 94 -111 0 -36 -32 -69 -66 -69 -41 0 -111 40 -155 87 -44 48 -48 74 -19
103 29 29 85 26 146 -10z"/>
<path d="M5287 2722 c-52 -53 -60 -77 -24 -70 16 3 36 -6 63 -28 l39 -33 -41
-42 -41 -41 -37 33 c-29 25 -36 37 -31 56 9 39 -20 27 -65 -27 -41 -49 -45
-76 -11 -65 25 8 214 -171 206 -195 -3 -10 0 -22 6 -26 8 -5 28 10 56 41 48
55 55 78 21 70 -18 -5 -34 5 -71 42 l-47 49 39 38 40 39 40 -32 c41 -32 45
-40 42 -73 -4 -31 23 -19 67 32 41 47 49 76 17 64 -9 -4 -53 27 -115 81 -77
66 -99 91 -95 105 11 36 -12 28 -58 -18z"/>
<path d="M2172 2699 c2 -18 -16 -40 -92 -106 -82 -73 -98 -83 -122 -78 -48 11
-33 -15 66 -120 l94 -100 31 29 c36 35 27 59 -19 49 -23 -4 -34 1 -54 22 -14
16 -26 33 -26 40 0 7 41 49 91 94 86 77 92 81 109 66 13 -12 20 -13 25 -5 7
12 -73 121 -94 128 -8 3 -11 -4 -9 -19z"/>
<path d="M5037 2476 c-87 -54 -117 -99 -117 -178 0 -63 28 -117 81 -160 63
-51 150 -37 227 35 38 36 41 67 11 116 -19 31 -22 33 -36 18 -14 -13 -14 -21
-5 -42 27 -58 1 -95 -65 -95 -36 0 -46 5 -82 46 -73 83 -88 166 -37 200 22 14
27 14 55 0 31 -16 61 -12 61 8 0 6 -12 26 -27 44 l-28 32 -38 -24z"/>
<path d="M2310 2452 c-38 -38 -39 -78 -5 -147 37 -76 30 -115 -22 -115 -31 0
-55 40 -51 86 4 54 -22 57 -52 7 l-22 -37 45 -42 c82 -78 173 -81 203 -7 16
38 11 69 -22 133 -28 52 -30 73 -9 90 37 31 86 -17 72 -70 -3 -11 1 -24 8 -30
17 -14 59 42 51 68 -9 27 -90 82 -131 89 -29 5 -39 1 -65 -25z"/>
<path d="M4759 2277 c-87 -46 -113 -125 -60 -178 27 -27 35 -29 101 -29 39 0
80 -5 91 -10 29 -16 25 -65 -6 -86 -23 -15 -27 -15 -65 5 -22 12 -45 21 -50
21 -18 0 -10 -38 13 -65 22 -26 22 -26 74 -10 71 21 113 69 113 131 0 34 -6
51 -25 69 -22 22 -33 25 -104 25 -59 0 -84 4 -95 16 -45 44 18 97 74 62 32
-21 46 3 24 41 -22 37 -28 38 -85 8z"/>
<path d="M2708 2197 c-49 -46 -46 -98 12 -182 46 -67 37 -115 -21 -115 -36 0
-51 21 -47 67 3 33 0 38 -19 41 -18 3 -24 -4 -34 -37 -10 -33 -9 -43 1 -56 22
-27 92 -58 133 -59 32 -1 44 5 68 32 37 41 38 91 4 147 -52 85 -60 105 -49
123 14 21 57 27 72 10 5 -7 12 -29 14 -48 4 -48 29 -50 51 -5 9 20 17 38 17
41 0 2 -21 18 -47 34 -60 38 -119 41 -155 7z"/>
<path d="M2950 2128 c0 -6 7 -19 15 -28 14 -15 12 -28 -21 -131 -20 -63 -38
-122 -41 -131 -3 -10 -14 -18 -24 -18 -11 0 -19 -6 -19 -14 0 -9 41 -28 110
-51 60 -21 112 -38 115 -39 3 0 16 16 28 37 16 28 18 40 9 49 -9 9 -17 6 -36
-12 -20 -18 -32 -22 -62 -17 -20 3 -39 9 -42 12 -3 3 1 31 9 63 14 57 14 57
49 53 63 -7 75 -6 80 4 2 6 -19 18 -47 28 l-50 19 14 51 c9 29 19 56 23 60 4
5 23 2 43 -7 29 -12 36 -20 39 -48 5 -49 31 -48 50 2 9 22 12 42 8 45 -13 8
-192 71 -222 79 -19 4 -28 2 -28 -6z"/>
<path d="M4228 2047 c-45 -13 -78 -27 -78 -34 0 -7 7 -13 15 -13 9 0 20 -21
31 -57 9 -32 22 -80 30 -107 17 -60 18 -108 3 -123 -25 -25 3 -30 67 -12 37
10 69 21 71 23 8 8 -7 26 -22 26 -8 0 -19 18 -25 43 -6 23 -13 48 -15 55 -10
28 24 9 75 -43 46 -46 60 -55 90 -55 65 0 67 12 9 73 -30 30 -64 60 -77 67
l-23 11 25 20 c37 29 37 99 0 128 -33 26 -75 26 -176 -2z"/>
<path d="M3250 2030 c0 -6 5 -19 12 -29 16 -26 -28 -257 -55 -282 -26 -24 -15
-37 38 -44 56 -9 76 2 45 25 l-22 16 23 112 c12 62 23 111 24 110 2 -2 29 -64
60 -138 90 -212 101 -213 140 -8 33 170 32 168 56 168 27 0 24 29 -3 34 -55
12 -108 11 -108 -1 0 -7 8 -17 19 -22 16 -9 17 -17 9 -68 -20 -128 -18 -128
-73 1 -48 112 -51 116 -85 122 -19 3 -45 7 -57 10 -13 2 -23 0 -23 -6z"/>
<path d="M3910 1988 c-64 -33 -93 -91 -87 -175 8 -115 63 -167 168 -161 99 7
149 65 149 174 0 71 -30 138 -71 159 -53 28 -109 29 -159 3z m110 -40 c27 -29
40 -79 40 -156 0 -54 -4 -67 -25 -87 -28 -29 -51 -31 -82 -10 -34 24 -47 82
-44 196 2 69 68 103 111 57z"/>
<path d="M3625 1980 c-3 -5 5 -14 19 -19 24 -10 24 -11 20 -108 -7 -146 -13
-183 -30 -183 -8 0 -14 -6 -14 -14 0 -8 17 -16 46 -20 100 -13 143 -2 94 24
-18 10 -20 21 -20 119 0 133 7 172 32 179 10 2 17 10 15 16 -5 14 -153 21
-162 6z"/>
<path d="M232 1408 c3 -7 191 -102 419 -211 228 -109 417 -201 421 -205 4 -4
-183 -98 -415 -209 -232 -112 -422 -208 -422 -215 0 -10 92 -14 442 -16 l442
-2 3 -43 c6 -78 -218 -72 2548 -75 2432 -3 2651 0 2686 29 8 6 14 29 14 50 l0
39 443 2 c367 3 442 5 442 17 0 8 -169 94 -424 217 l-423 203 163 78 c90 43
282 135 426 203 144 69 262 131 263 138 0 18 -1734 13 -1767 -6 -16 -9 -23
-23 -25 -55 l-3 -42 -1717 -3 -1718 -2 0 37 c0 51 -8 60 -60 72 -70 16 -1743
15 -1738 -1z m1726 -27 c22 -14 -124 -21 -437 -21 -288 0 -377 -8 -393 -33 -4
-7 -8 -81 -8 -164 0 -84 -4 -153 -8 -153 -5 0 -162 74 -349 164 -187 90 -364
175 -394 189 l-54 25 815 1 c448 0 821 -3 828 -8z m5211 5 c-2 -3 -182 -90
-399 -194 l-395 -189 -5 166 -5 166 -45 12 c-29 7 -151 12 -346 12 -319 1
-464 8 -442 22 13 9 1645 13 1637 5z m-5169 -61 l0 -25 -333 0 c-184 0 -369 3
-411 7 -155 13 -46 23 264 24 173 1 344 5 380 9 36 4 73 8 83 8 12 2 17 -5 17
-23z m3915 8 c204 -3 376 -9 384 -13 25 -14 -183 -21 -499 -18 l-305 3 -3 24
c-3 21 -1 23 25 16 15 -3 195 -9 398 -12z m-2170 -58 c1353 0 2490 3 2528 7
l67 7 0 -404 0 -405 -27 -7 c-37 -11 -5077 -10 -5125 0 l-38 8 1 142 c0 78 3
136 6 130 2 -7 13 -13 24 -13 14 0 19 7 19 28 l0 27 13 -25 c15 -31 64 -40 69
-14 3 16 4 17 20 1 9 -10 32 -17 52 -17 l36 0 0 116 c0 130 -6 144 -63 144
-34 0 -35 -2 -47 -52 l-13 -51 -19 51 c-19 51 -21 52 -59 52 l-39 0 0 145 0
144 68 -7 c37 -4 1174 -7 2527 -7z m-2625 -500 l0 -195 -407 0 c-223 0 -404 2
-402 4 7 7 793 384 802 385 4 1 7 -87 7 -194z m5589 39 c179 -86 360 -174 401
-195 l75 -38 -407 -1 -408 0 0 195 c0 107 3 195 6 195 3 0 153 -70 333 -156z"/>
<path d="M2414 976 c-49 -49 -47 -84 8 -129 36 -30 40 -37 29 -51 -7 -9 -25
-16 -38 -16 -21 0 -24 4 -20 23 8 31 -6 51 -32 42 -16 -5 -21 -14 -21 -40 0
-45 29 -65 93 -65 42 0 54 5 83 34 51 51 41 106 -27 141 -32 17 -38 39 -13 49
29 11 44 6 44 -14 0 -11 5 -20 11 -20 5 0 7 -4 4 -10 -8 -13 1 -13 26 0 24 14
24 31 -2 64 -17 21 -29 26 -66 26 -38 0 -50 -5 -79 -34z"/>
<path d="M2585 1000 c-7 -11 18 -40 34 -40 14 0 16 7 -19 -95 -37 -109 -34
-127 22 -123 l41 3 37 105 c30 85 42 106 59 108 27 4 27 3 -9 -102 -26 -77
-28 -90 -15 -103 9 -8 28 -13 47 -11 29 3 33 8 51 61 22 68 42 78 22 11 -17
-56 -5 -74 48 -74 33 0 35 2 44 49 5 27 6 56 2 64 -6 9 1 21 21 35 l29 22 -24
-71 c-22 -62 -23 -73 -10 -86 9 -8 28 -13 47 -11 30 3 33 7 65 98 l33 95 -5
-83 c-6 -93 3 -112 53 -112 26 0 36 11 96 107 36 60 66 105 66 102 0 -3 -13
-45 -30 -93 -38 -112 -35 -116 84 -116 47 0 86 4 86 9 0 30 -14 41 -51 41 -21
0 -39 2 -39 4 0 1 5 17 11 35 10 27 15 31 49 31 22 0 40 5 42 12 6 18 -17 38
-42 38 -16 0 -20 4 -16 16 3 9 6 20 6 25 0 5 23 9 50 9 50 0 55 4 44 34 -5 13
-23 16 -90 16 -49 0 -84 -4 -84 -10 0 -5 -5 -10 -11 -10 -5 0 -7 5 -4 10 3 6
-2 10 -12 10 -11 0 -34 -25 -61 -70 -24 -39 -44 -70 -45 -70 -1 0 -1 20 1 45
2 25 1 57 -2 70 -5 21 -12 25 -45 25 -22 0 -42 -6 -44 -12 -4 -10 -6 -10 -6 0
-1 7 -16 12 -39 12 -35 0 -39 -3 -54 -42 -11 -28 -17 -36 -17 -22 -2 40 -37
58 -118 63 -56 2 -78 0 -84 -10 -6 -10 -9 -11 -9 -1 0 15 -195 17 -205 2z"/>
<path d="M3611 889 c-35 -106 -38 -123 -26 -136 9 -8 28 -13 47 -11 29 3 33 8
51 61 18 55 20 57 53 57 32 0 34 -2 34 -35 0 -54 36 -85 97 -85 65 0 104 26
137 91 52 106 23 179 -71 179 -29 0 -58 -7 -72 -17 -22 -15 -25 -15 -36 0 -10
13 -29 17 -93 17 l-80 0 -41 -121z"/>
<path d="M4042 890 c-37 -107 -40 -124 -27 -137 9 -8 28 -13 47 -11 29 3 33 8
51 61 22 68 42 78 22 11 -17 -56 -5 -74 48 -74 33 0 35 2 44 49 5 27 6 56 2
64 -6 9 1 21 21 36 36 26 40 69 9 97 -16 14 -40 20 -98 22 l-77 4 -42 -122z"/>
<path d="M4381 889 c-50 -152 -52 -149 93 -149 l105 0 28 35 28 35 15 -33 c13
-28 21 -32 58 -35 48 -4 48 -4 28 82 l-14 59 50 54 c28 29 45 53 39 53 -7 0
-9 5 -6 10 14 23 -34 7 -60 -20 l-28 -30 -19 30 c-15 25 -24 30 -57 30 -22 0
-42 -5 -44 -12 -4 -10 -6 -10 -6 0 -1 8 -25 12 -85 12 l-84 0 -41 -121z m203
-59 c-41 -42 -46 -45 -89 -42 -25 2 -45 5 -45 7 0 1 5 16 11 34 10 27 15 31
49 31 22 0 40 5 42 12 6 18 -17 38 -42 38 -16 0 -20 4 -16 16 3 9 6 20 6 24 0
5 24 10 53 12 l52 3 11 -45 11 -45 -43 -45z"/>
<path d="M4887 995 c-57 -29 -107 -111 -107 -174 0 -31 6 -44 26 -60 35 -28
112 -29 146 -2 24 19 25 19 38 0 12 -16 27 -19 101 -19 60 0 89 4 93 13 5 10
7 10 12 0 8 -17 165 -18 182 -1 9 9 12 9 12 0 0 -17 176 -17 183 1 4 9 8 8 16
-3 14 -20 25 -6 46 58 9 28 20 50 25 47 4 -2 13 -24 19 -48 13 -53 30 -70 67
-65 23 2 30 11 45 53 16 46 18 48 18 18 1 -45 40 -73 101 -73 32 0 55 6 72 19
24 19 25 19 38 0 12 -16 27 -19 102 -19 48 0 88 4 88 9 0 30 -14 41 -51 41
-21 0 -39 2 -39 4 0 1 5 17 11 35 10 27 15 31 49 31 22 0 40 5 42 12 6 18 -17
38 -42 38 -16 0 -20 4 -16 16 3 9 6 20 6 25 0 5 23 9 50 9 50 0 55 4 44 34 -5
13 -23 16 -89 16 l-83 0 -15 -42 c-10 -26 -16 -35 -16 -22 -1 31 -42 64 -80
64 -46 0 -91 -24 -125 -68 -16 -20 -26 -29 -22 -19 14 40 16 63 7 76 -16 25
-37 4 -56 -58 -10 -34 -21 -61 -25 -61 -4 0 -12 19 -19 43 -18 61 -38 87 -65
87 -22 0 -28 -11 -61 -112 -35 -105 -55 -149 -55 -120 0 7 -16 12 -40 12 -22
0 -40 2 -40 4 0 1 5 17 11 35 10 27 15 31 49 31 22 0 40 5 42 12 6 18 -17 38
-42 38 -16 0 -20 4 -16 16 3 9 6 20 6 25 0 5 23 9 50 9 50 0 55 4 44 34 -5 13
-23 16 -89 16 l-84 0 -37 -114 -38 -114 -40 6 c-23 2 -42 6 -43 7 -2 1 11 41
27 90 36 107 33 125 -19 125 l-38 0 -38 -112 c-36 -106 -55 -148 -55 -120 0 7
-16 12 -40 12 -22 0 -40 2 -40 4 0 1 5 17 11 35 10 27 15 31 49 31 22 0 40 5
42 12 6 18 -17 38 -42 38 -16 0 -20 4 -16 16 3 9 6 20 6 25 0 5 23 9 50 9 50
0 55 4 44 34 -5 13 -23 16 -89 16 l-83 0 -15 -42 c-10 -26 -16 -35 -16 -22 -2
54 -83 81 -144 49z"/>
<path d="M1444 982 c-32 -25 -44 -55 -44 -107 0 -86 45 -135 125 -135 35 0 52
6 70 24 49 49 45 148 -10 203 -27 27 -40 33 -76 33 -27 0 -53 -7 -65 -18z"/>
<path d="M1613 984 c-7 -18 12 -34 40 -34 15 0 17 -11 17 -93 0 -106 6 -117
62 -117 l38 0 0 105 0 105 40 0 40 0 0 -93 c0 -106 6 -117 62 -117 l38 0 0
105 c0 103 0 105 23 105 22 0 23 -3 19 -55 -8 -99 36 -155 122 -155 59 0 93
30 102 90 6 38 8 40 25 24 24 -22 59 -10 59 20 0 41 -51 71 -77 45 -8 -8 -13
-5 -18 10 -3 11 -20 32 -36 46 -36 29 -96 34 -133 10 -21 -14 -25 -14 -39 0
-24 23 -375 22 -384 -1z"/>
</g>
</svg>
